<?xml version="1.0" encoding="utf-8"?>
<!-- Generator: Adobe Illustrator 22.0.1, SVG Export Plug-In . SVG Version: 6.00 Build 0)  -->
<svg version="1.1" id="Calque_1" xmlns="http://www.w3.org/2000/svg" xmlns:xlink="http://www.w3.org/1999/xlink" x="0px" y="0px"
	 viewBox="0 0 50 50" style="enable-background:new 0 0 50 50;" xml:space="preserve">
<style type="text/css">
	.st0{fill:#FFFFFF;}
	.st1{fill:#B94300;}
</style>
<g>
	<path class="st0" d="M14.5,47.7l1.8-13.8h-5.8v-4.2H17l1.3-10.2h-6.1v-4.2H19l1.8-13.5h4.1l-1.8,13.5h7.3l1.8-13.5h4.2l-1.8,13.5
		h5.8v4.2h-6.4l-1.3,10.2h6.1v4.2h-6.7l-1.8,13.8h-4.2l1.8-13.8h-7.3l-1.8,13.8H14.5z M28.6,29.7l1.3-10.2h-7.3l-1.3,10.2H28.6z"/>
</g>
<g>
	<path class="st1" d="M3.5,18.4h1.6v11h5.3v1.3H3.5V18.4z"/>
	<path class="st1" d="M22,24.4c0,4.2-2.6,6.5-5.7,6.5c-3.2,0-5.5-2.5-5.5-6.2c0-3.9,2.4-6.5,5.7-6.5C19.8,18.2,22,20.7,22,24.4z
		 M12.4,24.6c0,2.6,1.4,5,3.9,5c2.5,0,3.9-2.3,3.9-5.1c0-2.4-1.3-5-3.9-5C13.7,19.5,12.4,21.9,12.4,24.6z"/>
	<path class="st1" d="M33.4,30.1c-0.7,0.3-2.1,0.7-3.8,0.7c-1.9,0-3.4-0.5-4.6-1.6c-1.1-1-1.7-2.7-1.7-4.6c0-3.7,2.5-6.4,6.7-6.4
		c1.4,0,2.5,0.3,3.1,0.6l-0.4,1.3c-0.7-0.3-1.5-0.5-2.7-0.5c-3,0-4.9,1.9-4.9,4.9c0,3.1,1.9,5,4.7,5c1,0,1.8-0.1,2.1-0.3v-3.7h-2.5
		v-1.3h4.1V30.1z"/>
	<path class="st1" d="M46.3,24.4c0,4.2-2.6,6.5-5.7,6.5c-3.2,0-5.5-2.5-5.5-6.2c0-3.9,2.4-6.5,5.7-6.5
		C44.1,18.2,46.3,20.7,46.3,24.4z M36.8,24.6c0,2.6,1.4,5,3.9,5c2.5,0,3.9-2.3,3.9-5.1c0-2.4-1.3-5-3.9-5
		C38.1,19.5,36.8,21.9,36.8,24.6z"/>
</g>
</svg>
